<svg xmlns="http://www.w3.org/2000/svg"  viewBox="0 0 48 48" width="48px" height="48px"><linearGradient id="SVGID_1_" x1="37.435" x2="10.565" y1="10.565" y2="37.435" gradientUnits="userSpaceOnUse"><stop offset="0" stop-color="#60fea4"/><stop offset=".033" stop-color="#6afeaa"/><stop offset=".197" stop-color="#97fec4"/><stop offset=".362" stop-color="#bdffd9"/><stop offset=".525" stop-color="#daffea"/><stop offset=".687" stop-color="#eefff5"/><stop offset=".846" stop-color="#fbfffd"/><stop offset="1" stop-color="#fff"/></linearGradient><circle cx="24" cy="24" r="19" fill="url(#SVGID_1_)"/><path fill="#10e36c" d="M24,3.862c-6.592,0-12.776,3.234-16.543,8.652c-0.473,0.68-0.305,1.615,0.375,2.088	c0.68,0.473,1.615,0.304,2.088-0.375c0.773-1.112,1.669-2.114,2.658-2.997c0.202-0.057,0.416-0.1,0.656-0.1	c1.146,0.077,2.367,0.535,3.437,1.223c0.076,0.076,0.076,0.076,0.076,0.076c2.291,1.376,4.123,3.367,4.123,3.367	c-1.985,1.913-6.719,7.727-8.322,11.631c-1.631,4.113-1.631,6.627-1.473,7.792C8.458,32.209,6.862,28.291,6.862,24	c0-0.788,0.054-1.579,0.16-2.352c0.113-0.821-0.461-1.578-1.282-1.69c-0.824-0.118-1.578,0.461-1.69,1.282	C3.925,22.147,3.862,23.076,3.862,24c0,11.104,9.034,20.138,20.138,20.138c0.829,0,1.5-0.671,1.5-1.5s-0.671-1.5-1.5-1.5	c-5.021,0-9.531-2.184-12.668-5.636c0.691-3.349,5.192-8.699,6.864-10.446c0.917-1.07,2.671-2.832,4.048-4.208	c0.992-1.072,1.832-1.913,1.832-1.913c0.535,0.537,1.068,1.072,1.526,1.531c2.214,2.219,3.894,3.979,5.038,5.279	c1.146,1.3,3.131,3.748,3.666,4.514c1.638,2.33,2.315,4.124,2.583,5.022c-1.195,1.371-2.613,2.562-4.219,3.506	c-0.714,0.42-0.953,1.339-0.534,2.053c0.28,0.476,0.78,0.741,1.295,0.74c0.258,0,0.52-0.066,0.758-0.207	c6.137-3.606,9.949-10.263,9.949-17.374C44.138,12.896,35.104,3.862,24,3.862z M24.075,12.967c-2.596-1.989-4.963-3.367-6.719-3.826	c-0.616-0.155-1.141-0.193-1.588-0.164C18.259,7.613,21.081,6.862,24,6.862c3.004,0,5.827,0.782,8.284,2.145	C29.083,8.926,24.075,12.967,24.075,12.967z M37.31,34.77c0.457-3.94-1.008-7.014-3.309-10.784	c-2.596-4.132-6.719-8.188-6.719-8.188c3.666-3.444,6.719-4.514,7.33-4.743c0.209,0,0.432,0.023,0.659,0.066	c3.588,3.144,5.868,7.745,5.868,12.879C41.138,27.964,39.739,31.758,37.31,34.77z"/></svg>